<svg width="46" height="43" viewBox="0 0 46 43" fill="none" xmlns="http://www.w3.org/2000/svg">
<path d="M42 10.5H35.66L32 6.5H20V10.5H30.24L33.9 14.5H42V38.5H10V20.5H6V38.5C6 40.7 7.8 42.5 10 42.5H42C44.2 42.5 46 40.7 46 38.5V14.5C46 12.3 44.2 10.5 42 10.5ZM16 26.5C16 32.02 20.48 36.5 26 36.5C31.52 36.5 36 32.02 36 26.5C36 20.98 31.52 16.5 26 16.5C20.48 16.5 16 20.98 16 26.5ZM26 20.5C29.3 20.5 32 23.2 32 26.5C32 29.8 29.3 32.5 26 32.5C22.7 32.5 20 29.8 20 26.5C20 23.2 22.7 20.5 26 20.5ZM10 10.5H16V6.5H10V0.5H6V6.5H0V10.5H6V16.5H10V10.5Z" fill="#BF9725"/>
</svg>
